<svg xmlns="http://www.w3.org/2000/svg" width="200" height="200"><defs><clipPath id="h" clipPathUnits="userSpaceOnUse"><path d="M609.266 540.086H1701.98v364.653H609.266Z"/></clipPath><clipPath id="b" clipPathUnits="userSpaceOnUse"><path d="M399.305 34.219H2012.48V1610.1H399.305Z"/></clipPath><clipPath id="d" clipPathUnits="userSpaceOnUse"><path d="M1033.96 619.75h618.27v382.28h-618.27z"/></clipPath><clipPath id="e" clipPathUnits="userSpaceOnUse"><path d="M1021.97 624.405h625.32v185.166h-625.32z"/></clipPath><clipPath id="f" clipPathUnits="userSpaceOnUse"><path d="M1072.11 729.16h601.95v113.812h-601.95z"/></clipPath><clipPath id="g" clipPathUnits="userSpaceOnUse"><path d="M688.344 536.027H1705.66v816.313H688.344Z"/></clipPath><clipPath id="c" clipPathUnits="userSpaceOnUse"><path d="M611.391 264.781H1742.14v841.689H611.391Z"/></clipPath><clipPath id="i" clipPathUnits="userSpaceOnUse"><path d="M609.266 735.261H1701.98v364.649H609.266Z"/></clipPath><clipPath id="j" clipPathUnits="userSpaceOnUse"><path d="M407.773 38.742H2004.84V1601.04H407.773Z"/></clipPath><clipPath id="k" clipPathUnits="userSpaceOnUse"><path d="M399.305 29.898H2012.48V1605.78H399.305Z"/></clipPath><clipPath id="l" clipPathUnits="userSpaceOnUse"><path d="M665.656 213.367H1882.68V1352.41H665.656Z"/></clipPath><clipPath id="a" clipPathUnits="userSpaceOnUse"><path d="M385.5-1637.214h1635v1635h-1635z" style="fill:#000;stroke-width:.495455" transform="scale(1 -1)"/></clipPath></defs><g clip-path="url(#a)" transform="matrix(.12418 0 0 -.1252 -49.719 203.485)"><g clip-path="url(#b)"><g clip-path="url(#c)" transform="matrix(1 0 0 -1 0 1640)"><path d="M0 0c3.703 23.371 2.832 47.152 1.668 70.703-1.89 13.7.5 29.336-7.043 41.48-28.484 29.766-64.078 52.044-97.195 76.31-66.899 43.894-143.39 72.722-220.48 93.12-118.977 33.38-242.387 49.555-365.204 56.868-46.086 3.468-92.3 3.5-138.484 4.417-46.664 1.707-93.715 4.172-140.184-1.496-40.578-5.043-64.394-21.484-82.039-46.68-4.441-.171-9.023-2.828-10.734-7.683-9.325-16.121-14.774-33.8-18.79-51.844-8.105-19.902-18.144-39.418-21.734-60.715-.765-9.746-1.617-19.503-2.441-29.265-8.621-35.375-13.113-71.57-16.172-107.863-5.984-50.887-7.711-102.23-.695-153.118 7.586-45.441 22.851-90.73 45.726-130.742 38.106-53.262 85.496-101.918 143.238-133.687 48.31-28.868 101.196-48.403 154.75-65.086 80.516-24.625 163.766-41.774 247.711-48.809 36.918-.027 71.114 15.106 104.207 29.8 29.899 12.587 55.743 32.673 84.23 47.958 23.18 12.7 47.204 23.945 69.27 38.598 20.633 14.046 41.02 28.437 61.782 42.261a145.222 145.222 0 0 1-3.899-5.976c-10.937-17.617-4.304-38.688 2.438-56.563-.168-24.937 30.386-15.906 18.218 7.016-11.718 27.547-8.187 38.258 10.981 59.98 22.89 24.48 41.605 52.25 60.25 80.024 10.062 13.191 23.246 24.765 29.738 40.226a9.25 9.25 0 0 1 .383 3.403C-48.242-144.691-12.762-75.141 0 0Z" style="fill:#fff;fill-opacity:1;fill-rule:nonzero;stroke:none" transform="translate(1738.184 759.148)"/></g><g clip-path="url(#d)" transform="matrix(1 0 0 -1 0 1640)"><path d="M0 0c-.25-.434-.492-.875-.719-1.328-4.175-8.477-6.148-18.856-4.523-28.375-1.63 9.52.344 19.898 4.52 28.375C-.497-.875-.255-.434 0 0Zm255.488 25.684c1.41.293 2.82.593 4.227.902-.13 6.93-8.375 9.77-14.54 11.226-4.527 1.641-9.905-.328-12.05-4.703-12.95-.96-28.586-1.601-45.555-2.398-.023.09-.054.184-.078.273-1.761 5.817-8.004 6.914-12.918 8.844-8.66 3.29-17.234 1.285-25.808-.66-1.856 1.676-4.262 2.883-6.59 3.563-4.29 3.792-11.254 2.867-14.477-1.782-.738-1.101-1.23-2.195-1.504-3.27-3.496.165-7.007.4-10.746.622-10.695.562-21.449.383-32.039 2.25-6.394 1.48-12.789 2.941-19.242 4.062 11.73 10.07 22.613 21.653 27.918 36.426 4.559 12.113 6.219 25.527 3.957 38.309-1.316 6.175-4.64 11.675-8.297 16.734-16.789 21.688-37.848 39.68-59.586 56.227-17.933 13.418-35.347 28.324-56.433 36.562-21.336 8.938-44.743 9.762-67.368 12.984-22.64 3.305-45.59 5.989-68.492 5.989-8.84 0-17.668-.399-26.469-1.317a214.1 214.1 0 0 1-11.105-1.441c-44.687-7.442-99.277-25.89-124.309-66.192-9.875-15.671-16.066-33.195-22.113-50.605-6.312-17.578-9.46-36.18-9.668-54.84-.176-8.629-.258-17.308.375-25.93 1.996-1.812 3.985-3.632 6.024-5.398 3.793-3.289 7.523-6.742 11.535-9.781a32.83 32.83 0 0 0 3.949-1.832c-2.297 5.699-3.79 11.793-3.828 15.324 4.223-8.266 9.383-16.113 14.5-23.887 1.062-.02 2.12-.043 3.183-.066 5.61-.129 11.223-.344 16.832-.563 5.473-.214 10.938-.422 16.372-1.168 10.793-1.488 21.43-3.84 32.09-6.05 5.261-1.09 10.507-2.223 15.734-3.47a11.525 11.525 0 0 0 1.828-.433c.086-.023.172-.047.262-.066l-.207.047c5.23-1.266 10.41-2.766 15.578-4.282 2.258-.66 4.511-1.328 6.75-2.05 2.972-.965 5.91-2 8.851-3.059 4.711-1.703 9.285-3.805 13.883-5.785 5.285-2.281 10.547-4.586 15.738-7.066l.606-.29c3.867-1.832 7.719-3.699 11.613-5.472 5.055-2.305 10.149-4.563 15.031-7.215 4.852-2.629 9.485-5.605 14.063-8.68 4.426-2.972 8.746-6.074 13.031-9.242 4.399-3.246 8.824-6.453 13.188-9.746 4.015-3.027 8.07-6.055 11.879-9.344 2.28-1.972 4.539-3.965 6.71-6.058.293-.282.583-.567.872-.852.28-.164.562-.332.843-.496 3.543-2.43 7.262-4.586 10.961-6.766h.004a191.042 191.042 0 0 1 7.836-5.289c42.328-28.672 107.207-52.418 150.922-14.73 3.68 3.586 4.586 7.14 3.793 10.25l-.121-.14-.004.003v.012l-.004.015-.008.028-.015.031-.008.035-.012.04-.016.03-.015.044-.016.03-.008.044-.02.047-.01.043-.02.039-.016.043-.02.039-.011.043-.016.043-.016.035-.015.043-.016.035-.02.039-.011.04-.016.034-.015.035-.016.036-.02.03-.011.032-.016.035-.015.028-.012.035-.012.03-.015.024-.016.028-.012.027-.012.027-.015.028-.016.027-.008.027-.011.024-.02.023-.004.028-.015.023-.012.024-.008.023-.016.023-.015.024-.008.016-.016.027-.007.02-.016.023-.012.023-.008.024-.015.02-.012.023-.012.023-.015.023-.004.024-.02.02-.011.023-.008.023-.02.024-.011.02-.012.03-.012.028-.02.02-.011.027-.012.027-.02.027-.011.024-.012.031-.016.02-.011.023-.012.031-.02.02-.007.027-.016.024-.016.027-.011.02-.012.027-.016.023-.011.024-.012.023-.016.024-.011.023-.016.023-.012.028-.015.02-.012.027-.016.023-.011.027-.02.024-.008.027-.015.016-.016.027-.012.031-.011.02-.02.027-.012.024-.011.023-.02.024-.012.031-.011.016-.02.027-.008.02-.015.027-.02.023-.012.028-.015.02-.012.026-.016.02-.015.023-.02.032-.02.02-.011.03-.016.02-.02.027-.015.028-.012.02-.023.03-.012.02-.015.031-.02.024-.015.015-.012.032-.024.02-.015.022-.016.028-.02.02-.011.019-.016.023-.011.024-.024.027-.012.02-.015.027-.02.016-.011.027-.016.023-.016.016-.015.027-.016.02-.016.023-.007.016-.02.023-.008.016-.015.023-.012.02-.016.02-.008.015-.015.02-.008.02-.016.011-.007.02-.012.015-.008.016-.012.015-.011.016-.008.016-.012.015-.004.012-.02.02v.015l-.007.008-.012.012-.004.015-.012.012-.007.016-.008.015-.008.016-.004.008-.012.011-.003.016-.008.016-.008.007-.008.012v.012l-.012.015-.007.012-.008.012-.004.012-.008.015-.004.008-.008.012-.004.015-.007.012-.012.016-.008.011-.004.012-.004.012-.008.02-.011.015-.008.012-.008.012-.008.02-.008.019-.011.015-.012.02-.008.011-.012.016-.007.024-.02.015-.008.02-.015.02-.008.019-.02.015-.004.024-.019.023-.008.012-.02.016-.007.023-.016.016-.004.02-.023.023-.008.011-.016.02-.007.015-.02.016-.008.016-.015.02-.008.019-.02.015-.008.02-.015.016-.008.015-.02.024-.019.011-.012.02-.015.02-.016.015-.02.023-.015.02-.012.023-.023.016-.02.024-.016.02-.019.019-.02.02-.02.01-.01.028-.032.02-.016.015-.015.02-.02.023-.02.012-.023.023-.02.024-.023.02-.02.015-.019.02-.023.02-.028.015-.015.023-.024.02-.027.02-.02.015-.02.023-.026.016-.028.023-.02.02-.03.016-.02.023-.027.016-.024.02-.027.023-.024.02-.03.019-.024.015-.032.024-.027.015-.023.02-.032.023-.023.02-.027.015-.032.024-.027.02-.035.015-.024.02-.03.023-.032.012-.027.023-.024.016-.039.02-.02.015-.03.023-.036.016-.023.023-.032.02-.035.012-.027.015-.031.024-.035.023-.028.016-.031.02-.031.015-.035.023-.028.02-.031.02-.031.015-.032.024-.035.015-.027.024-.031.015-.035.024-.028.02-.035.023-.035.011-.035.028-.032.023-.035.02-.035.02-.039.023-.039.02-.035.023-.035.027-.04.023-.042.028-.04.02-.042.023-.036.023-.042.024-.043.027-.043.023-.04.028-.035.023-.043.024-.039.023-.043.023-.039.028-.043.02-.039.027-.043.02-.043.023-.035.027-.047.023-.043.028-.043.027-.043.024-.039.027-.047.027-.046.024-.036.02-.043.027-.043.023-.035.016-.039.03-.043.02-.039.024-.039.02-.039.027-.039.02-.043.019-.035.023-.047.024-.031.015-.043.028-.04.023-.038.016-.043.02-.043.019-.031.023-.043.02-.04.02-.042.019-.04.02-.035.019-.047.02-.035.019-.043.02-.043.023-.043.012-.047.023-.042.027-.047.024-.047.023-.051.024-.05.023-.06.031-.05.02-.059.031-.054.024-.063.035-.059.023-.058.027-.055.028-.066.027-.059.031-.062.024-.059.031-.055.027-.062.028-.055.027-.062.027-.055.024-.059.027-.054.028-.059.027-.055.031-.062.024-.063.027-.058.027-.063.028-.058.027-.067.031-.058.024-.067.035-.058.023-.067.028-.062.027-.059.031-.062.028-.07.027-.06.02-.062.03-.058.024-.063.031-.054.024-.063.027-.062.024-.059.02-.055.03-.058.02-.059.031-.062.02-.055.027-.059.02-.062.03-.055.016-.062.028-.063.023-.058.031-.063.02-.062.023-.059.024-.055.02-.058.023-.063.02-.055.027-.058.02-.063.023-.054.02-.059.015-.05.02-.063.023-.063.02-.058.023-.059.02-.062.015-.059.023-.066.02-.063.027-.058.012-.063.023-.062.02-.063.02-.059.015-.058.024-.063.015-.054.02-.055.023-.055.016-.05.015-.055.016-.055.02-.05.015-.055.02-.043.011-.055.016-.047.016-.055.011-.046.024-.047.02-.055.011-.047.016-.05.011-.051.012-.047.02-.055.011-.05.02-.063.02-.047.007-.05.02-.052.015-.054.012-.055.016-.055.023-.047.008-.054.02-.055.011-.055.016-.05.016-.043.015-.055.008-.047.016-.05.015-.048.008-.047.016-.05.015-.047.012-.047.008-.047.015-.047.012-.047.012-.05.008-.051.015-.043.012-.047.016-.05.004-.048.015-.05.016-.047.012-.051.011-.047.008-.043.016-.043.011-.047.012-.043.008-.043.012-.043.011-.043.012-.039.012-.039.012-.039.007-.039.008-.039.02-.04.004-.038.015-.04.012-.03.008-.047.011-.032.012-.039.008-.039.008-.035.015-.031.012-.04.008-.038.008-.032.011-.035.008-.03.016-.04.012-.027.004-.032.011-.039.012-.027.008-.035.008-.031.011-.028.012-.043.004-.027.012-.031.007-.032.016-.039.004-.023.016-.04.011-.03.008-.028.008-.027.008-.031.015-.028.012-.035.004-.027.008-.031.02-.024.007-.035.008-.023.008-.028.012-.027.011h-.035l-.02.016-.023.008-.032.008-.019.015-.031.004-.02.008-.031.012-.024.007-.023.012-.027.008-.024.008-.027.008-.02.015h-.03l-.028.012-.024.012-.023.011-.024.012-.03.004-.024.008-.028.011-.023.012-.027.012-.028.004-.035.012-.023.011-.028.008-.027.004-.023.02-.028.003-.03.012-.028.008-.024.008-.035.015-.023.004-.032.012-.027.008-.031.012-.028.007-.03.008-.024.012-.031.008-.028.015-.031.004-.031.016-.028.004-.03.011-.032.008-.024.008-.027.008-.027.012-.032.011-.023.004-.023.008-.024.012-.031.012h-.02l-.027.011-.02.004-.03.012-.02.004-.02.011-.02.004-.023.008-.023.008-.028.008-.02.008-.019.007-.023.008-.02.008-.023.008-.016.008-.02.004-.019.007-.02.004-.015.008-.016.008-.027.008-.015.004-.02.011-.012-.004-.02.012-.019.012-.02.004-.019.008-.015.007-.016.008-.024.004-.015.008-.016.008-.027.008-.012.007-.027.012-.02.004-.011.012-.032.008-.015.007-.02.012-.02.008-.019.008-.023.008-.016.007-.02.012-.027.016-.02.004-.019.011-.027.008-.016.016-.023.011-.024.008-.031.008-.016.008-.03.016-.024.015-.024.012-.027.008-.024.015-.023.012-.035.016-.02.011-.035.016-.02.008-.023.015-.031.008-.023.016-.028.016-.023.007-.024.012-.027.012-.023.015-.024.008-.023.016-.032.004-.02.02-.023.011-.03.012-.02.008-.02.011-.035.016-.016.012-.039.011-.015.008-.024.016-.027.011-.027.016-.024.008-.027.016-.024.007-.03.012-.024.012-.028.015-.023.012-.035.016-.028.011-.027.016-.027.016-.032.011-.03.012-.028.016-.04.015-.027.016-.03.016-.032.011-.04.02-.027.012-.03.02-.04.015-.031.02-.027.011-.032.012-.03.015-.036.016-.027.016-.032.02-.03.01-.024.024-.04.012-.019.008-.031.02-.035.007-.024.024-.027.004-.024.02-.03.015-.028.015-.024.012-.035.016-.027.015-.031.016-.02.016-.035.015-.027.016-.024.015-.035.012-.023.024-.032.011-.027.016-.031.016-.032.015-.03.02-.032.011-.035.024-.031.015-.04.02-.035.016-.035.023-.047.023-.039.02-.047.02-.039.027-.047.02-.046.023-.047.027-.04.02-.046.023-.051.024-.043.023-.05.023-.048.024-.043.023-.046.028-.047.02-.047.019-.047.027-.047.024-.047.03-.05.024-.044.024-.054.023-.043.027-.051.02-.047.027-.043.02-.047.027-.058.028-.036.023-.042.02-.047.023-.04.016-.046.027-.043.02-.032.023-.039.016-.035.02-.039.015-.027.015-.035.02-.032.02-.03.011-.028.016-.035.011-.028.02-.027.02-.023.007-.036.016-.027.016-.027.02-.028.01-.027.02-.031.012-.028.02-.035.011-.027.02-.031.015-.024.02-.039.012-.023.015-.031.024-.032.011-.03.024-.032.012-.04.023-.03.016-.036.023-.035.02-.039.023-.039.02-.039.023-.043.02-.039.023-.04.023-.046.028-.043.023-.05.028-.044.027-.05.02-.047.03-.051.028-.043.027-.055.028-.05.031-.051.027-.055.028-.05.027-.048.031-.054.032-.055.03-.055.036-.054.023-.051.04-.055.027-.047.031-.055.031-.05.035-.047.024-.047.031-.047.031-.047.032-.05.03-.044.028-.046.028-.04.027-.046.035-.04.027-.05.028-.047.035-.043.023-.035.032-.043.027-.043.035-.043.027-.04.032-.046.035-.043.031-.039.027-.04.036-.05.035-.047.027-.039.035-.047.04-.043.034-.043.032-.047.043-.043.035-.046.035-.036.035-.05.031-.035.04-.04.035-.035.03-.039.04-.031.031-.039.04-.027.034-.036.036-.027.043-.027.039-.012.023C41.13-59.672 30.437-45.519 27.88-29.91 26.55-3.16 102.754 5.996 162.168 9.852l.695.136c2.465.473 4.938.739 7.418 1.04 2.903.433 5.801.874 8.672 1.5 1.54.335 3.082.695 4.649.902 1.472.195 2.957.312 4.433.484 3.219.375 6.41.934 9.63 1.328 2.663.332 5.323.715 7.98 1.106A773.897 773.897 0 0 1 238 21.934c2.852.574 5.687 1.242 8.527 1.875 2.98.664 5.973 1.25 8.961 1.875z" style="fill:#000;fill-opacity:1;fill-rule:nonzero;stroke:none" transform="translate(1392.27 753.934)"/></g><g clip-path="url(#e)" transform="matrix(1 0 0 -1 0 1640)"><path d="M0 0c-20.442-9.767-41.874-18.408-64.101-23.809-21.744-7.706-44.3-11.9-67.012-15.563-10.864-2.282-21.903-3.57-32.738-5.969-7.934-1.803-15.537-4.83-23.344-7.07-8.93-2.255-18.104-5.256-24.296-12.465-17.78-19.454-9.106-35.647 7.433-51.796 9.59-11.479 23.548-17.194 35.857-25.077-6.598-7.227-16.344-8.7-25.482-10.47-18.495-4.149-37.744-6.486-56.576-3.309-16.332 2.892-29.848 13.135-43.404 22.012-15.182 8.516-29.17 18.82-43 29.343-34.579 26.274-73.474 46.687-114.548 60.735-25.028 8.251-51.092 12.735-77.082 16.722-23.26 3.358-46.738 5.865-70.226 6.133-8.51-.92-11.538-13.149-4.403-17.95 5.196-3.228 11.878-1.729 17.72-2.64 9.832-.07 19.573-1.017 29.308-2.316 31.298-3.225 62.55-8.421 92.829-17.104 32.64-10.408 63.41-25.521 92.308-43.84 22.865-15.136 43.54-33.459 67.65-46.725 42.185-31.92 74.925-29.606 124.295-18.359 15.837 3.33 41.209 20.026 28.84 38.301-9.294 10.26-23.649 13.834-34.012 22.776-6.254 6.243-13.417 12.536-17.299 20.575-.03 6.321 5.658 11.861 11.355 13.834 10.865 2.955 21.425 6.974 32.368 9.64 22.507 4.03 45.062 7.813 67.51 12.14 23.767 6.564 47.576 13.272 70.738 21.765 6.797 2.607 13.295 5.888 20.031 8.653 3.188 1.414 6.89 3 8.859 6.031C14.762-8.975 8.595 1.587 0 0Z" style="fill:#000;fill-opacity:1;fill-rule:nonzero;stroke:none" transform="translate(1632.276 807.734)"/></g><g clip-path="url(#f)" transform="matrix(1 0 0 -1 0 1640)"><path d="M0 0c-17.418-4.582-36.098-8.945-50.363-20.488-18.188-16.621-40.57-54.094-41.54-78.68 2.637-11.016 18.536-9.828 19.778.934a1.343 1.343 0 0 0-.848.96c0 .008-.004.012-.004.02-.062.242-.082.504-.117.75-.101.656-.219 1.305-.316 1.961-.04.254-.074.504-.11.758-.699-.18-1.386.273-1.57.957 0 0 .004-.004.004-.008l-.004.016v-.008l-.012.035.012-.027v.004a3.83 3.83 0 0 0-.2.695v.008c-.062.14-.128.281-.187.426l.047-.122c-.168.407-.343.797-.465 1.215-.136.469-.28.946-.343 1.43a7.726 7.726 0 0 0 .004 1.969c.378 2.445 1.14 4.828 1.836 7.195.244.831.527 1.655.837 2.47.145.785.359 1.561.616 2.296.86 2.449 1.953 4.808 3.117 7.129.687 1.37 1.472 2.69 2.406 3.914.934 1.226 1.95 2.355 3.016 3.464 1.32 1.377 2.706 2.684 4.055 4.028.256.306.519.607.788.902a64.366 64.366 0 0 0 2.684 2.761c.391.416.784.831 1.18 1.243 1.242 1.281 2.531 2.516 3.761 3.805 1.372 1.476 2.704 2.984 4.079 4.46.054.059.11.116.164.174l.16.17a92.37 92.37 0 0 0-.12-.128c1.146 1.205 2.324 2.369 3.585 3.453a64.203 64.203 0 0 0 4.586 3.578c1.554 1.14 3.113 2.27 4.777 3.254 1.422.836 2.922 1.527 4.383 2.289 2.324 1.261 4.61 2.562 7 3.707 2.472 1.18 5.004 2.215 7.574 3.16 2.309.844 4.61 1.719 6.96 2.426 2.368.707 4.798 1.258 7.216 1.773 2.453.52 4.91 1.078 7.386 1.477 2.731.437 5.461.77 8.211 1.043 2.332.234 4.653.511 6.993.664 1.199.078 2.398.176 3.597.277 1.356.113 2.715.094 4.074.102 1.16.007 2.317.02 3.473.02 1.242 0 2.48-.013 3.719-.067 2.695-.117 5.394-.13 8.07-.504 1.238-.172 2.469-.387 3.703-.55 1.442-.192 2.883-.38 4.313-.653 2.75-.535 5.394-1.375 8.058-2.239-.164.055-.328.106-.492.16 2.106-.644 4.235-1.21 6.328-1.89 2.021-.655 4.014-1.398 5.995-2.158 21.91-5.571 43.54-12.503 65.626-17.287 11.543-2.79 22.38-7.68 33.56-11.555 27.054-7.961 54.062-16.176 81.483-22.8 64.485-14.684 131.375-17.954 197.036-10.49 15.953 1.438 32.027 1.528 47.52 6.114 12.464 3.29 8.483 22.192-4.567 19.473-21.625-5.817-44.313-4.957-66.45-7.477-32.144-4.09-64.464-1.246-96.683.075-22.535 2.957-45.188 5.648-67.39 10.656-22.708 5.023-44.91 11.972-67.259 18.367-24.558 6.59-47.714 17.445-72.878 21.988C90.699-9.113 58.949 3.13 26.719 3.13 17.848 3.129 8.94 2.203 0 0Z" style="fill:#fff;fill-opacity:1;fill-rule:nonzero;stroke:none" transform="translate(1164.265 839.593)"/><path d="m0 0 .156.082C.102.055.051.027 0 0Z" style="fill:#fff;fill-opacity:1;fill-rule:nonzero;stroke:none" transform="translate(1133.55 808.644)"/><path d="M0 0a135.404 135.404 0 0 0 0 0Z" style="fill:#fff;fill-opacity:1;fill-rule:nonzero;stroke:none" transform="translate(1116.406 796.066)"/></g><g clip-path="url(#g)" transform="matrix(1 0 0 -1 0 1640)"><path d="m0 0-.256.115L0 0Z" style="fill:#003ab2;fill-opacity:1;fill-rule:nonzero;stroke:none" transform="translate(1686.42 668.958)"/><path d="m0 0 2.937 12.8c-.832-.005-1.664-.009-2.496-.009C.459 8.517.406 4.245 0 0Z" style="fill:#003ab2;fill-opacity:1;fill-rule:nonzero;stroke:none" transform="translate(1684.11 653.784)"/><path d="m0 0 2.733 11.92C.89 8.195-.167 4.182 0 0Z" style="fill:#003ab2;fill-opacity:1;fill-rule:nonzero;stroke:none" transform="translate(1680.107 636.33)"/><path d="m0 0 1.42 4.278C.946 2.853.472 1.428 0 0Z" style="fill:#003bb3;fill-opacity:1;fill-rule:nonzero;stroke:none" transform="translate(725.5 958.528)"/><path d="M0 0c-1.196-3.867-2.395-7.735-3.59-11.602C-2.37-7.67-1.155-3.742.061.19L0 0Z" style="fill:#003bb3;fill-opacity:1;fill-rule:nonzero;stroke:none" transform="translate(717.846 934.687)"/><path d="M0 0h.004c.055.03.11.058.166.087v.001A52.98 52.98 0 0 1 0 0Z" style="fill:#003bb3;fill-opacity:1;fill-rule:nonzero;stroke:none" transform="translate(1705.238 797.459)"/><path d="m0 0 .118.06L0 0Z" style="fill:#003bb3;fill-opacity:1;fill-rule:nonzero;stroke:none" transform="translate(1703.964 796.81)"/><path d="M0 0c-.007-.005-.011-.005-.019-.01-.01-.005-.019-.006-.03-.01h.008l-.47-.202C-.623-.273-.736-.32-.845-.367c-.038-.016-.075-.035-.113-.05l-.003-.005c-.15-.067-.301-.13-.451-.196-.008-.001-.015-.006-.023-.007A2.418 2.418 0 0 0-1.63-.71c-.222-.096-.443-.195-.67-.29l.497.216c-.11-.047-.214-.093-.32-.14-4.177-1.82-8.412-3.428-12.71-4.893 8.345.421 16.673 1.1 24.965 2.094a9739.31 9739.31 0 0 0 2.219 9.377C8.297 3.643 4.153 1.81 0 0Z" style="fill:#003bb3;fill-opacity:1;fill-rule:nonzero;stroke:none" transform="translate(1693.05 739.898)"/><path d="M0 0c.048.019.094.04.14.06A23.57 23.57 0 0 0 0 0Z" style="fill:#003bb3;fill-opacity:1;fill-rule:nonzero;stroke:none" transform="translate(1691.248 739.112)"/><path d="M0 0c.144.762.297 1.527.453 2.29a414.824 414.824 0 0 0-9.348-.782C-5.934 1-2.965.496 0 0Z" style="fill:#003bb3;fill-opacity:1;fill-rule:nonzero;stroke:none" transform="translate(1696.91 710.164)"/><path d="M0 0c-.29 3.133-.578 6.262-.863 9.39-.715 5.551-1.426 11.098-2.133 16.641-.942 7.395-2.3 14.746-3.668 22.082-3.68 15.383-7.426 30.727-11.352 46.055-3.797 14.832-7.48 29.68-10.828 44.617-3.344 14.902-6.418 29.844-9.43 44.817-1.593 7.906-2.898 15.933-4.8 23.773-1.832 7.574-3.657 15.148-5.492 22.723-1.301 4.18-2.653 8.347-4.141 12.472-1.656 4.602-3.184 9.266-5.07 13.778-1.067 2.546-2.133 5.093-3.2 7.636a219.944 219.944 0 0 1-5.066 9.536c-4.246 6.273-8.715 12.402-13.105 18.578-5.996 8.437-11.871 16.933-17.7 25.488-5.328 7.808-10.82 15.496-16.261 23.23-2.297 3.262-4.973 6.29-7.473 9.403-.89 1.11-1.781 2.222-2.676 3.336-7.789 8.812-15.816 17.593-22.851 26.953-5.692 7.562-11.649 14.969-16.871 22.863-5.415 8.195-10.852 16.371-16.153 24.637-5.914 9.238-11.75 18.512-18.16 27.39a1194.95 1194.95 0 0 1-7.848 6.915c-36.586 32.671-83.609 53.074-131.953 60.203-17.844 4.172-35.347 9.77-53.437 12.851-17.059 3.067-34.516 3.559-51.48 7.23-26.102 6.641-52.637 9.462-79.548 9.403-14.847 1.754-29.703 2.535-44.55 2.535-17.043 0-34.075-1.031-51.075-2.8a645.567 645.567 0 0 1-23.472-2.895c-43.547-6.535-86.864-12.363-128.969-23.992-42.531-45.325-79.297-95.973-111.129-149.317-40.75-68.285-74.332-140.863-99.707-216.238-1.863-5.777-3.723-11.55-5.586-17.324-.16-.508-.316-1.012-.476-1.516-7.883-25.91-14.793-52.18-19.918-78.781a716.21 716.21 0 0 1-10.372-75.402c22.493-19.875 45.012-39.72 67.403-59.704 83.508-77.851 177.543-150.742 290.762-177.472 22.109-4.442 46.613-9.508 70.496-9.953.004.004.008.004.011.004 3.063-.317 6.153-.422 9.285-.23 10.797.027 21.688.148 32.211 2.827 17.149 4.348 32.141 14.207 45.391 25.711l.012.012c3.324 2.504 6.433 5.332 9.582 8.016 5.097 4.863 10.832 9.441 13.95 15.91 1.507 2.96 2.925 6.25 3.245 9.586v.008l.024.12.015.126.024.129.015.129.02.136.011.133.016.14.012.141.012.149.004.148.008.157v.097l.004.067-.004.164v.164l-.004.164-.012.164-.012.164-.012.16-.02.156-.015.157-.02.152-.023.152-.023.149-.028.152-.027.148-.031.149-.031.152-.036.149-.035.152-.035.152-.039.153-.035.152-.039.149-.04.152-.042.148-.043.145-.043.14-.043.141-.047.137-.047.14-.05.133-.051.137-.051.133-.059.14-.058.137-.059.137-.062.144-.063.145-.066.144-.067.145-.07.14-.066.145-.07.137-.067.14-.066.133-.067.133-.066.125-.07.125-.067.125-.066.125-.075.121-.07.125-.07.117-.078.121-.075.122-.078.125-.086.125-.082.125-.086.125-.086.12-.082.126-.086.12-.082.122-.085.117-.079.117-.086.113-.082.11-.078.11-.078.109-.078.105-.074.106-.074.097-.075.102-.078.094-.07.097-.07.094-.07.09-.075.086-.07.09-.07.082-.07.082-.071.078-.07.086-.075.078-.074.078-.07.078-.074.078-.07.082-.075.074-.074.079-.074.074-.07.074-.071.07-.066.07-.07.07-.067.063-.055.055c-.133.094-.258.195-.39.29-.024.015-.051.03-.075.046a7.47 7.47 0 0 1-.738.398c-.55.266-1.102.532-1.672.77-.418.09-.84.164-1.265.23-1.043.118-2.09.16-3.137.243-1.293.097-2.594.21-3.867.453-.332.062-.664.129-.996.199l-.711.023c-.98.036-1.961.106-2.942.157.04 0 .078-.004.117-.004-.859.043-1.714.09-2.57.148-.805.055-1.613.074-2.418.149-.836.078-1.672.187-2.504.304-.789.11-1.57.282-2.347.453h.015c-.797.168-1.586.34-2.363.586-.223.07-.445.145-.664.219-.93.184-1.856.375-2.781.559-24.27 4.859-45.622 18.25-65.965 31.78-25.223 17.392-43.008 43.173-53.832 71.536-.024.094-.043.191-.063.285-1.34 5.918-2.078 12.05-1.66 18.098a95.486 95.486 0 0 0 2.77 15.398c10.628 33.692 36.097 62.832 67.878 78.532a91.15 91.15 0 0 0 36.583 7.39c1.019-.02 2.046.004 3.074.024 1.543.03 3.086.066 4.617-.032.082.008.191.008.32 0 50.121-5.601 98.36-18.886 145.586-35.66l3.55-1.066A1010.715 1010.715 0 0 1-349.264.164c3.238-.816 6.484-1.629 9.73-2.441 3.098-.781 6.246-1.402 9.367-2.094 5.598-1.246 11.227-2.351 16.82-3.613 13.06-2.95 26.07-6.07 39.122-9.031 2.883-.59 5.765-1.176 8.648-1.762 2.219-.453 4.434-.973 6.66-1.352 3.422-.582 6.844-1.168 10.27-1.75 2.047-.355 4.094-.765 6.152-1.035 5.692-.754 11.379-1.633 17.082-2.246 5.793-.625 11.586-1.246 17.387-1.86 3.008-.238 6.023-.48 9.035-.714 2.809-.227 5.629-.54 8.445-.668 3.735-.176 7.473-.352 11.211-.531 2.614-.121 5.239-.32 7.86-.364 3.867-.054 7.738-.105 11.609-.164 2.582-.031 5.18-.156 7.762-.101 6.586.136 13.176.273 19.762.402 5.601.3 11.203.625 16.8.93 4.442.246 8.844.793 13.27 1.27 4.578.491 9.144.925 13.691 1.667 5.36.871 10.719 1.75 16.078 2.621 6.496 1.426 13.008 2.813 19.504 4.22 2.074.444 4.117 1.089 6.168 1.644 3.809 1.027 7.613 2.054 11.422 3.086.684.183 1.363.37 2.043.554 3.988 1.399 7.977 2.801 11.965 4.203 1.808.645 3.625 1.297 5.441 1.942 2.168.945 4.34 1.89 6.508 2.832.14.062.29.129.434.191C-6.074-2.695-3.133-1.394-.183-.093A7.6 7.6 0 0 1 0 0Z" style="fill:#000;fill-opacity:1;fill-rule:nonzero;stroke:none" transform="translate(1705.406 797.555)"/></g><g clip-path="url(#h)"><g clip-path="url(#i)" transform="matrix(1 0 0 -1 0 1640)"><path d="M0 0c3.64 7.934 11.125 20.848-.102 25.84-19.64 6.281-9.722-34.04-47.82-41.2-48.07-6.003-97.992-.738-144.766 11.536-55.304 16.48-109.757 35.738-163.859 55.793-68.574 26.226-139.172 47.886-211.914 58.82-46.11 5.785-99.332 5.754-137.371-24.55-22.617-18.696-30.61-48.024-41.73-73.977-15.055-36.766-58.333-34.676-90.286-24.239-23.683 7.415-43.879 22.192-64.101 36.098-39.586 25.309-84.582 70.555-135.239 57.793-43.898-14.574-18.085-50.066-5.703-26.832 28.907 32.164 91.133-20.992 117.903-38.664 41.558-30.7 89.586-61.437 143.664-53.355 42.164 6.183 53.492 45.89 67.457 79.714 44.746 104.254 261.691 22.286 340.664-5.453C-279.277 4.68-185.371-38.836-84.031-37.12-52.363-39.164-13.582-32.731 0 0Z" style="fill:#fff;fill-opacity:1;fill-rule:nonzero;stroke:none" transform="translate(1690.602 952.633)"/><path d="M0 0c-37.398-5.59-60.453-21.816-81.996-52.469-7.328-9.844-14.461-20.082-19.09-31.508-2.89-5.828-5.918-13.949.48-18.617 3.852-2.867 9.176-2.652 12.81.457 2.331 1.801 3.644 4.5 3.827 7.281 1.207 2.805 2.317 5.653 3.59 8.422 5.02 9.07 10.86 17.684 17.332 25.778C-47.59-38.578-28.55-25.106-1.75-20.63c36.828 6.016 75.945-9.727 110.625-20.77 22.363-6.82 44.285-15 66.762-21.421 38.62-12.422 78.914-17.703 118.922-23.664 28.406-1.762 56.468-6.477 84.996-5.454 11.806.434 23.642-.062 35.443.54 0 .29.004.578.01.867.008.476.024.949.047 1.422l-.07.351c-.387 2.024-.692 4.063-.856 6.117-.3 3.753-.326 7.521-.13 11.28-3.623-.453-7.3-.388-10.971-.327-1.926.036-3.848.067-5.758.028-23.309-.543-46.629-.84-69.75 2.613-13.082 1.473-26.281 1.313-39.262 3.7-23.355 3.57-46.742 7.019-69.91 11.683-30.305 6.863-59.637 17.266-89.187 26.73C91.73-15.373 53.749.714 14.167.715 9.467.715 4.747.488 0 0Z" style="fill:#fff;fill-opacity:1;fill-rule:nonzero;stroke:none" transform="translate(1179.48 840.972)"/></g></g><g clip-path="url(#j)" transform="matrix(1 0 0 -1 0 1640)"><path fill="none" d="M0 0c121.582 159.29 131.078 385.344 8.379 556.8-17.148 23.962-36.14 45.825-56.64 65.532a466.095 466.095 0 0 1-40.129 34.41c-159.294 121.582-385.348 131.082-556.801 8.38a471.817 471.817 0 0 1-63.059-54.087 466.896 466.896 0 0 1-19.168-20.87 467.876 467.876 0 0 1-17.719-21.813 515.41 515.41 0 0 1-6.27-8.41 483.603 483.603 0 0 1-8.038-11.395 479.443 479.443 0 0 1-7.672-11.594 480.67 480.67 0 0 1-7.3-11.789l-.001-.004a500.223 500.223 0 0 1-5.234-8.957v-.004a469.867 469.867 0 0 1-17.395-33.672l-1.441-3.125a484.609 484.609 0 0 1-5.528-12.574 501.386 501.386 0 0 1-3.898-9.52v-.004a553.466 553.466 0 0 1-2.48-6.386v-.004a498.882 498.882 0 0 1-3.543-9.641 468.476 468.476 0 0 1-6.441-19.492c-41.321-134.828-21.54-286.703 66.862-410.23 30.012-41.934 65.66-77.434 105.18-106.212a468.553 468.553 0 0 1 11.394-8.039 471.215 471.215 0 0 1 14.528-9.53 468.542 468.542 0 0 1 17.82-10.677c107.336-61.086 235.727-77.683 355.657-44.89 2.171.593 4.34 1.203 6.503 1.828 2.165.625 4.32 1.265 6.477 1.926 2.16.656 4.316 1.332 6.469 2.02 1.433.46 2.863.929 4.293 1.401.718.239 1.433.481 2.148.72a488.442 488.442 0 0 1 10.692 3.75h.004c39.09 14.253 76.918 33.984 112.406 59.382a472.844 472.844 0 0 1 17.578 13.2c.953.753 1.906 1.511 2.855 2.265a470.107 470.107 0 0 1 16.649 13.969h.004a527.09 527.09 0 0 1 5.37 4.796 502.564 502.564 0 0 1 7.895 7.32A480.411 480.411 0 0 1-34.41-40.13 466.053 466.053 0 0 1 0 0Z" style="fill:#4d4740;fill-opacity:0;fill-rule:nonzero;stroke:none" transform="translate(1576.652 532.402)"/><path d="M0 0c122.7-171.457 113.203-397.512-8.379-556.8a466.021 466.021 0 0 0-34.41-40.129 480.411 480.411 0 0 0-15.184-15.09 501.608 501.608 0 0 0-7.894-7.32 418.708 418.708 0 0 0-5.371-4.798h-.004a448.746 448.746 0 0 0-8.227-7.066 448.183 448.183 0 0 0-4.183-3.469 454.925 454.925 0 0 0-4.239-3.434c-.949-.753-1.902-1.511-2.855-2.265-.715-.563-1.434-1.125-2.152-1.688a479.19 479.19 0 0 0-15.422-11.515c-27.727-19.844-56.883-36.227-86.95-49.238a430.63 430.63 0 0 0-7.234-3.06 416.07 416.07 0 0 0-3.629-1.48c-1.21-.488-2.422-.972-3.636-1.449-.61-.238-1.215-.476-1.825-.71-1.215-.473-2.43-.942-3.648-1.403a487.852 487.852 0 0 0-5.488-2.04h-.004a450.588 450.588 0 0 0-10.692-3.75c-.715-.237-1.43-.48-2.148-.718-1.43-.472-2.86-.941-4.293-1.402a475.36 475.36 0 0 0-6.469-2.02c-2.156-.66-4.312-1.3-6.477-1.925a473.285 473.285 0 0 0-6.503-1.829c-119.93-32.793-248.32-16.195-355.657 44.891-.75.426-1.5.86-2.25 1.289a433.107 433.107 0 0 0-6.71 3.945 430.838 430.838 0 0 0-8.86 5.442 471.212 471.212 0 0 0-20.25 13.504 470.211 470.211 0 0 0-5.672 4.066c-39.52 28.777-75.168 64.277-105.18 106.211-88.402 123.527-108.183 275.402-66.863 410.23a468.463 468.463 0 0 0 9.984 29.133v.004a440.247 440.247 0 0 0 2.48 6.387v.004a454.734 454.734 0 0 0 3.9 9.52 459.479 459.479 0 0 0 5.527 12.574l1.441 3.125c1 2.14 2.016 4.277 3.047 6.406a457.081 457.081 0 0 0 6.39 12.684 484.05 484.05 0 0 0 7.957 14.582v.003a500.223 500.223 0 0 0 5.235 8.958v.003a440.941 440.941 0 0 0 5.441 8.856c.618.98 1.239 1.957 1.86 2.933.625.973 1.254 1.946 1.887 2.918a463.7 463.7 0 0 0 3.832 5.797 449.394 449.394 0 0 0 7.95 11.441c.675.95 1.358 1.891 2.042 2.833a515.997 515.997 0 0 0 6.27 8.41c1.413 1.855 2.843 3.7 4.292 5.535a474.025 474.025 0 0 0 13.426 16.277 418.93 418.93 0 0 0 3.484 3.989 467.442 467.442 0 0 0 12.594 13.688 473.623 473.623 0 0 0 8.11 8.257 471.817 471.817 0 0 0 58.039 49.023c171.453 122.704 397.507 113.204 556.8-8.378a466.055 466.055 0 0 0 40.129-34.41C-36.14 45.823-17.148 23.96 0 0Zm417.195-304.297c2.367 23.84.11 48.242-5.285 71.54-2.215 13.081-4.805 28.343-16.808 36.132-2.11 1.262-4.153 1.844-6.051 1.91-9.684 5.031-19.852 9.16-30.035 13.047-16.524 7.887-33.993 13.277-51.133 19.578-6.281 2.055-12.516 4.27-19.047 5.418-.758.25-1.524.504-2.285.746-9.274 3.79-18.774 7.055-28.344 9.88-18.934 3.812-39.57 12.402-47.184 31.589-1.949 3.594-3.328 6.977-4.586 10.383a236.126 236.126 0 0 1-7.48 25.734c-1.309 9.067-5.219 17.469-6.613 26.5-1.88 12.473-.239 20.903 6.234 31.727 3.375 6.117 7.223 11.949 10.867 17.898a178.9 178.9 0 0 1 2.418 2.746c14.489 15.203 27.168 32.059 39.223 49.23 10.09 16.212 18.914 33.165 27.289 50.317 3.07 5.344 4.992 11.211 7.629 16.762 1.035 2.277 2.34 4.797 3.285 7.37a8.825 8.825 0 0 1 1.637 2.161c2.949 5.531.117 12.395-3.918 19.117-1.32 3.176-3.047 6.164-5.242 8.864-1.399 1.543-2.442 3.41-3.485 5.261-1.015 1.809-2.027 3.61-3.347 5.106-9.032 13.496-16.84 27.84-26.278 41.027-2.504 3.5-5.125 6.922-7.914 10.223-6.484 7.496-13.078 14.906-20.027 21.965-5.742 5.742-10.653 12.695-18.371 15.898-8.848 3.691-17.301 4.149-25.75 3.043a36.318 36.318 0 0 1-5.239-.422c-19.609-3.539-37.488-13.36-56.539-18.992-13.21-4.902-26.722-8.883-39.953-13.73a493.542 493.542 0 0 1-8.578-3.516c-.969-.3-1.926-.617-2.887-.953-7.691-2.942-15.535-5.387-23.75-6.336-8.414-1.281-16.816-3.332-25.386-2.41-4.746.625-9.219 2.343-13.442 4.566-5.23 1.813-9.75 4.785-14.527 7.484-4.555 2.11-11.18 4.727-15.258 6.614-.348.14-.695.285-1.039.43-4.078 3.964-8.789 7.132-13.738 9.992-5.559 5.675-12.805 9.57-16.887 16.59a79.725 79.725 0 0 0-3.344 6.222c-.113.387-.222.777-.332 1.164-3.906 12.965-3.898 26.438-3.918 39.86A521.7 521.7 0 0 1-67.117 313c3.488 30.738 4.875 61.855 1.12 92.625-2.37 18.05-3.144 37.469-12.929 53.344-.082.094-.16.191-.242.285-.176 1.789-.906 3.64-2.34 5.394-27.375 22.422-63.223 31.18-96.988 39.309-32.645 4.836-37.867 3.758-60.64-20.645-12.317-13.824-24.895-27.44-35.645-42.57-9.512-12.3-16.551-26.34-25.946-38.738a233.14 233.14 0 0 1-3.718-5.488c-2.524-3.348-5.125-6.63-7.762-9.883-5.73-7.38-10.996-15.54-18.781-20.945-10.383-7.336-22.418-9.985-34.727-11.5-14.18.03-28.383-.485-42.512-1.055a49.567 49.567 0 0 0-3.734-.094c-20.184 1.98-29.555 4.422-48.754 18.149-4.031 3.156-7.75 6.62-11.316 10.253a2070.3 2070.3 0 0 1-2.617 3.559c-3.743 6.527-7.747 12.809-12.23 18.867-7.966 13.989-18.63 26.215-26.224 40.399-4.836 5.968-8.937 12.449-12.793 19.109-2.375 7.582-6.445 14.484-11.39 20.68a567.76 567.76 0 0 0-1.672 2.347c-6.777 9.555-14.375 20.25-26.27 22.922-15.851 2.262-31.859-2.636-47.336-5.672-4.562-.824-8.539-3.312-12.968-4.53-6.13-1.06-11.598-4.009-17.559-5.59a89.23 89.23 0 0 1-27.598-10.669c-.453-.156-.91-.312-1.367-.472-14.61-5.618-34.644-12.196-39.05-28.516-3.641-4.727-3.735-13.496-4.168-19.293-1.875-26.21 2.316-52.262 4.238-78.344.746-8.234 1.23-16.476 1.52-24.73-.508-10.094-1.274-20.18-2.462-30.211-2.543-23.965-17.035-43.297-34.96-58.469-1.395-1.039-2.708-2.187-4.012-3.344a84.584 84.584 0 0 1-7.676-5.62c-.129-.071-.25-.145-.371-.212a11.012 11.012 0 0 1-2.195-1.421 59.859 59.859 0 0 1-2.934-2.204c-5.285-2.492-10.61-4.89-16.035-7.05-7.828-3.215-16.344-2.582-24.524-1.391-13.238 1.145-25.804 5.55-38.332 9.719-4.03 1.226-8.082 2.426-12.129 3.652-.008.004-.008.008-.011.012-8.25 4.097-16.325 8.55-25.2 11.215-22.882 9.355-47.035 14.972-70.714 21.87-.196.052-.387.106-.578.165-1.868 1.058-4.098 1.55-6.184 1.328-2.277.312-4.586.363-6.672-.117-1.992-.196-3.906-.563-6.102-1.055-21.332-.563-45.984-41.496-58.734-57.703-.426-.688-.851-1.371-1.277-2.055-3.875-1.898-6.012-6.914-8.832-10.832-9.121-9.183-17.59-19.664-18.215-33.168-5.469-25.426 5.277-41.844 21.234-60.258 4.883-6.199 9.34-12.441 13.856-18.77.93-1.296 1.86-2.6 2.797-3.91 4.988-6.558 11.644-11.652 15.296-19.222.274-.379.547-.762.81-1.148 1.019-2.829 3.25-5.036 5.175-7.391 0 0 .004 0 .004-.004.707-1.016 1.406-2.031 2.11-3.043 2.238-3.926 4.023-8.094 6.456-11.91 4.567-8.328 9.567-16.406 14.899-24.258 4.175-6.258 8.504-12.394 11.367-19.402 2.156-4.285 2.445-9.098 2.965-13.782.59-5.324 1.59-10.8.527-16.124-1.2-5.075-2.75-10.047-4.422-14.98a8.819 8.819 0 0 0-.101-.298c-2.125-6.117-4.286-12.226-6.356-18.379a49.866 49.866 0 0 1-.746-2.937c-9.48-20.664-22.285-40.852-44.035-49.7-7.418-3.164-14.766-6.453-22.234-9.445-17.657-3.84-35.141-8.582-52.575-13.285-5.566-1.922-11.047-4.066-16.53-6.2a979.544 979.544 0 0 1-14.45-4.077c-20.988-6.93-53.395-8.86-55.168-36.992-.2-1.958-.027-3.684.406-5.188-.629-2.992-.023-6.469.27-10.02-.614-14.14-.242-28.261.441-42.41.094-11.449.668-22.867.953-34.304.188-1.895.43-3.793.653-5.688-.454-2.867-.977-5.73-1.149-8.633.14-12.039 3.793-24.172 10.93-33.847 2.754-3.649 6.554-6.25 10.578-8.344 1.812-2.106 4.77-3.805 9.113-4.602 23.54-13.277 49.586-19.87 75.488-26.828.473-.172.946-.355 1.415-.527 17.394-8.516 36.363-13.324 53.359-22.723 9.605-5.511 18.805-11.949 25.488-20.914 5.024-4.976 8.91-10.781 12.313-16.89 3.285-9.547 7.773-18.645 11.351-28.082 1.055-2.422 2.09-4.864 3.13-7.297 1.183-7.082 1.558-14.301 1.616-21.477-.714-8.781-3.832-17.059-6.027-25.523-3.363-8.438-7.492-16.762-12.852-24.13-1.437-1.613-2.617-3.394-3.656-5.257-16.707-20.559-32.777-41.664-47.945-63.363-7.3-9.215-12.176-19.832-17.918-30.016-1.3-2.039-2.793-3.988-4.027-5.926-6.137-4.074-7.45-16.27-8.114-23.422-.012-7.914 3.5-15.328 5.403-22.91 5.883-16.637 14.629-32.41 25.004-46.648 10.562-11.813 21.449-23.528 33.93-33.344 18.234-15.129 27.042-23.344 52.038-17.89 2.98.34 5.946.824 8.926 1.117a8.546 8.546 0 0 1 5.129 2.03c11.824 2.626 23.61 5.571 35.098 9.403 9.742 2.711 19.039 6.961 29.035 8.778 5.289 1.02 10.172 3.246 15.117 5.304 1.797.387 3.602.762 5.406 1.14 10.274 2.423 20.43 5.345 30.942 6.602 11.972 2.61 24.578 3.442 36.62.918 10.302-2.8 20.114-6.886 29.782-11.316.324-.23.652-.457.984-.684a12.089 12.089 0 0 1 2.13-1.472c5.144-3.559 10.304-7.082 15.523-10.524 5.738-4.726 11.125-9.902 15.597-15.836 10.309-17.343 17.329-36.687 18.172-56.968.075-3.48-.078-5.774-.324-8.579 0-.023-.004-.043-.004-.058-1.7-14.426-2.578-28.934-2.762-43.461-.175-16.262 1.551-32.465 2.086-48.707.008-.45.004-.902.012-1.356-.77-2.628-.387-5.53.05-8.359.016-1.71.044-3.426.09-5.137-1.023-4.894-.796-10.047.825-14.851a9.119 9.119 0 0 1 .648-2.91c.852-4.27 1.504-8.586 4.164-12.204 9.528-14.214 25.84-21.535 40.606-29.062 5.324-2.414 11.015-3.762 16.523-5.664 8.293-2.965 16.7-5.828 25.223-8.04 6.02-1.425 11.84-3.51 17.71-5.417 5.856-1.336 11.763-2 17.583-3.54 6.133-1.48 12.418-1.109 18.664-1.085 2.297-.047 4.758-.332 7.148-.227 7.079-1.02 18.13 4.774 30.727 26.375 4.879 8.25 11.062 15.57 16.371 23.528 7.906 10.64 15.16 21.75 22.566 32.746 4.922 8.754 9.79 17.539 14.723 26.285.496.617.985 1.234 1.461 1.867 7.793 10.258 17.203 19.203 26.227 28.387 6.328 4.379 13.027 8.187 20.511 10.262 11.653 2.171 23.477 3.343 35.262 4.816 4.984.375 9.961.867 14.922 1.445 4.934-.789 9.894-1.363 14.902-1.597 5.762-.848 11.774-.606 17.348-2.41 6.21-2.485 12.48-5.922 16.809-11.11 5.218-7.035 10.867-13.73 14.96-21.527 5.141-9.274 8.864-19.301 14.458-28.317 1.933-3.207 4.07-6.351 6.417-9.336 3.622-5.699 7.563-11.23 11.934-16.566 10.219-13.91 20.762-27.61 32.258-40.48 2.293-2.907 4.828-5.637 7.527-8.2 2.512-2.925 5.356-5.574 8.574-7.695 1.77-1.875 4.133-3.195 6.63-3.55 8.933-4.106 18.804-5.735 28.554-6.704 6.996-1.164 13.969.414 20.988.547 12.575 1.066 25.059 3.172 36.633 8.422 9.035 4.379 18.617 7.18 27.98 10.707 7.696 2.203 15.512 5.289 21.954 9.848 2.324.66 4.765 1.101 6.73 2.597a9.936 9.936 0 0 1 1.496 1.387c3.68 2.105 6.125 4.91 9.012 8.512 8.277 10.582 11.45 39.164 11.164 52.82-.926 12.309-4.094 24.398-3.61 36.828.16 15.356-2.581 31.344-4.702 46.168-.887 9.512-1.852 19.547-2.293 29.207.082.711.175 1.418.28 2.133.376 6.441 1.044 13.055 3.962 18.906 4.285 7.266 9.433 15.211 15.844 20.602a257.839 257.839 0 0 0 6.332 5.183c9.605 5.086 18.46 11.414 27.02 18.114 2.206 1.156 4.347 2.418 6.41 3.972 6.273 3.164 12.84 5.66 19.187 8.664 2.789 1.117 5.566 2.426 8.527 3.032 2.719.43 5.5.375 8.227.636l.004.004c7.152-.386 14.312-1.562 21.246-3.039 6.953-1.312 13.597-3.523 20.172-5.972 8.875-4.254 17.757-8.493 27.113-11.555 10.722-2.856 20.742-7.735 31.215-11.336 10.164-4.156 20.722-7.95 31.414-11.2 5.988-3.6 13.172-3.675 19.797-5.402.504-.105.988-.203 1.449-.3l.09-.02c.879-.203 1.757-.402 2.64-.594.274-.054.543-.101.809-.14 6.316-1.32 8.2-1.39 17.203 1.07 12.184 2.93 21.625 10.129 30.203 18.79 11.281 10.519 20.512 23.065 29.05 35.784 5.802 8.125 10.708 16.848 16.481 24.996 4.543 6.637 8.586 13.672 10.586 21.508 1.43 3.293 2.149 7.172 1.43 10.488v.008c.625 6.176-.711 12.45-3.672 19.262-2.16 8.711-6.898 16.836-11.012 24.676-7.406 14.367-16.441 27.805-26.066 40.777-7.95 11.887-17.11 22.813-26.496 33.555a80.859 80.859 0 0 0-2.7 3.879c-3.34 5.027-6.91 9.734-10.445 14.383-6.953 9.144-13.761 18.097-18.398 29-3.2 8.36-5.547 13.144-3.777 22.265-.008.098-.012.2-.016.297.879 3.086 1.719 6.152 2.562 9.207 4.387 9.25 7.653 18.969 10.602 28.762.828 3.492 1.832 6.95 2.875 10.394 2.336 4.68 4.328 9.528 6.344 14.348.004.008.008.016.008.027a125.06 125.06 0 0 1 1.71 3.664c7.137 11.954 17 22.731 30.274 27.653 5.2 2.758 10.723 4.531 16.387 5.816 1.93.352 3.851.73 5.777 1.14a.48.48 0 0 0 .106.016c1.191.192 2.379.38 3.57.583.05.004.098.011.152.02 6.07.921 12.207 1.589 18.2 2.565 7.777 1.57 15.652 3.032 23.148 5.711a12.47 12.47 0 0 1 1.48.743h.004c.938.261 1.88.53 2.817.8 11.988 4.282 24.234 8.055 35.91 13.153 6.73 2.96 13.738 5.511 19.836 9.683 9.762 3.875 19.738 8.258 24.242 16.97 4.582 6.608 7.703 15.866 9.953 21.007 3.52 10.672 5.164 21.883 6.527 33.02z" style="fill:#000;fill-opacity:1;fill-rule:nonzero;stroke:none" transform="translate(1585.031 1089.203)"/></g><g clip-path="url(#k)" transform="matrix(1 0 0 -1 0 1640)"><path d="M0 0c3.453-16.828 5.672-33.941 4.273-51.137-1.754-17.96-6.109-36.402-15.546-51.945-5.532-8.57-14.403-13.91-23.094-18.805-14.633-9.289-31.188-14.324-47.664-19.23-23.649-8.754-47.192-14.653-72.02-18.2-21.367-4.07-35.629-23.007-44.039-41.824-7.496-17.398-14.941-34.996-20.332-53.164-6.398-27.96 10.797-46.168 26.02-66.902 15.543-24.535 32.242-48.324 46.664-73.55 10.742-19.665 28.41-37.696 28.781-61.27-.648-8.313-4.531-15.961-9.113-22.79-5.364-7.628-10.653-15.343-16.559-22.57l-.008-.008c-2.02-2.058-4.09-4.062-5.973-6.257-15.953-15.946-29.62-35.899-51.14-44.743-11.184-4.586-19.137-3.246-30.305-.187-11.2 1.805-21.578 6.254-32.09 10.308-14.472 5.633-29.207 10.579-43.625 16.36-9.344 3.601-18.566 7.492-27.761 11.441-18.637 5.961-39.247 9.633-58.516 4.688-14.047-4.086-26.094-12.825-38.688-19.98-18.109-12.196-39.914-27.622-43.96-50.47-3.176-17.726-.426-35.82.078-53.675.328-14.844 4.8-29.118 6.875-43.723.066-.992.113-2.082.199-3.195 0-.024-.004-.043-.004-.067-.656-23.02 7.055-47.93-5.047-69.258-6.66-10.44-19.281-14.316-29.762-19.804-9.91-4.871-19.914-9.547-30.508-12.762-17.406-5.262-34.48-13.957-52.988-13.93-11.586.735-24.598.72-34.309 7.891-9.625 8.309-17.886 18.023-26.308 27.5-8.523 9.14-17.711 17.723-25.238 27.75-6.766 9.332-12.664 19.27-18.418 29.25-31.473 57.5-32.031 76.89-105.485 66.465-52.078-6.66-59.504-11.36-86.757-56.547-3.813-6.305-7.95-12.406-12.215-18.414-.817-1.238-1.168-2.488-1.164-3.664-2.34-3.809-4.364-7.606-5.938-9.57-4.824-6.707-9.355-13.598-13.922-20.48-8.472-12.747-17.015-25.778-28.175-36.364-9.145-8.645-17.153-7.91-28.54-5.035-14.23 2.222-28.457 3.878-42.39 7.472-13.485 2.887-26.067 7.414-38.985 11.403-13.136 4.078-25.566 11.144-35.433 20.761-15.942 22.258-12.223 61.254-13.637 87.785-.113 16.7-.805 33.403-.398 50.102 1.554 18.625 3.98 37.863-2.696 55.832-6.86 18.164-22.113 31.078-37.633 41.875-19.613 14.254-43.609 21.816-67.808 22.004-8.711-.133-17.285-1.96-25.543-4.652-7.059-2.063-14.2-3.836-21.203-6.043-6.02-.086-13.418-5.645-18.746-6.918-9.797-3.825-20.118-6.032-30.043-9.496-14.317-5.106-29.262-7.918-44.16-10.747-24.422-5.46-36.938-3.582-55.645 13.79-9.312 7.468-16.437 17.066-23.86 26.308a259.61 259.61 0 0 0-3.894 4.934c-.879 2.55-3.05 4.523-4.93 6.605 0 0-.01.004-.01.008a243.784 243.784 0 0 0-3.449 4.895 5.495 5.495 0 0 1-1.586 1.523c-2.785 4.262-4.578 9.11-6.16 13.973-2.773 7.715-5.637 15.398-8.344 23.133-10.808 25.894 2.852 36.238 18.207 54.699 13.54 18.789 24.375 39.422 38.383 57.902 11.028 15.52 24.196 29.887 32.145 47.344 12.383 32.7 9.535 63.77-7.762 93.926-6.121 12.46-12.043 25.754-23.676 34.082-7.3 5.96-15.672 10.414-24.523 13.586-13.238 5.054-26.598 9.78-39.832 14.843a3838.877 3838.877 0 0 0-56.406 19.715c-13.301 3.98-26.961 7.414-38.602 15.34-14.336 9.191-16.64 20.824-16.844 36.895-1.101 12.757-1.726 25.543-1.785 38.351.012 6.399-.023 12.801-.074 19.2.223 1.73.086 3.503-.05 5.273v.012c-.013 1.234-.028 2.464-.04 3.699.043 1.836.188 3.886.074 5.82.18 2.766.457 5.531.781 8.27 2.043 10.273 1.672 20.757 2.246 31.125 8.547 18.226 32.458 16.816 49.231 21.433 18.32 4.617 35.727 12.117 53.578 18.192 19.254 6.027 39.074 10.57 57.414 19.187 21.535 10.3 36.652 30.082 45.25 51.941 5.781 13.36 10.336 27.708 10.152 42.395-.617 30.348-9.707 45.848-26 70.402-13.503 20.653-26 42.168-42.808 60.383-11.27 13.453-26.3 25.016-31.102 42.59-5.683 19.305 3.582 29.965 14.004 44.922 9.621 13.933 19.715 27.723 32.54 38.91 16.034 14.574 30.69 39.637 55.484 35.57 11.902-1.558 22.875-6.836 34.507-9.617 24.508-6.14 48.008-15.32 71.481-24.508-.062.028-.125.051-.184.078a1.127 1.127 0 0 0-.12.051c49.82-19.851 78.378-28.277 115.05 18.68.664.77 1.113 1.566 1.371 2.367 5.102 5.68 9.707 11.781 12.828 18.817a191.697 191.697 0 0 1 11.774 32.12c2.574 10.516 1.414 21.415 1.941 32.126 1.117 14.101.79 28.886-1.062 42.722-1.09 14.977-3 29.883-4.348 44.836.203 13.36-.418 30.719 9.453 40.535 5.863 5.395 14.297 6.153 21.133 9.891 17.2 8.191 34.687 16.836 53.453 20.594.293-.028.586-.031.883-.012 1.414-.102 2.66.324 3.883.856.195.03.394.062.593.09 1.344.21 2.43.714 3.27 1.41.32.074.648.125.984.148 8.422 1.453 16.602 2.238 24.848 3.555 4.492.879 8.953 1.93 13.426 2.879 3.879 1.199 7.718 1.402 11.441-.434 21.59-6.84 34.016-38.55 44.168-57.012 7.125-13.144 16.356-24.996 24.434-37.547 10.058-14.632 18.101-31.28 32.703-42.082 13.144-10.785 27.293-14.59 43.832-16.503 15.441-3.692 31.3-4.301 47.094-2.942 11.8 1.04 24.097 1.395 35.015 6.473 15.055 8.425 26.781 21.777 36.633 35.73 10.754 17.973 25.418 34.586 37.508 51.352 6.77 8.629 12.535 17.957 18.957 26.832 7.008 9.246 15.586 17.172 24.543 24.496 7.722 6.539 12.816 7.14 22.613 7.82 12.5 1.88 24.66-2.363 36.254-6.555 13.617-4.765 26.738-10.894 40.738-14.523 12.383-3.289 24.801-7.523 33.844-17.066 3.14-3.399 6.969-6.856 7.273-11.758 2.098-16.969 4.833-33.84 7.133-50.778.594-4.468 1.117-8.957 1.391-13.453.02-.816.203-1.566.512-2.238-.098-3.68-.29-7.527-.27-10.754-.3-4.867-2.23-9.555-3.055-14.367-2.09-9.559-2.238-19.39-2.566-29.133-.437-14.078.836-28.152.074-42.234-1.332-14.305 2.473-28.95 13-39.14 14.196-13.759 32.055-23.313 49.965-31.368 22.508-10.953 49.215-10.527 72.04-.703 13.573 5.055 27.57 8.883 41.187 13.824 14.496 4.793 28.675 10.453 42.562 16.79 12.551 4.472 33.324 14.64 46.164 11.925 2.512-.86 5.36-2.824 6.961-4.66 6.395-6.375 12.57-12.973 18.88-19.43 7.468-7.793 15.288-15.309 22.007-23.777 8.215-10.98 15.086-22.883 22.7-34.278 6.753-10.27 14.546-20.027 19.155-31.53 8.297-16.599-5.316-32.856-11.824-47.653-9.355-20.309-21.851-38.778-35.656-56.301-13.77-17.996-30.348-34.121-40.703-54.5-8.797-18.586-5.239-38.445.004-57.68-.246-1.609.152-3.246.886-4.75a192.168 192.168 0 0 1 3.09-9.187 480.254 480.254 0 0 0 2.207-7.895 5.913 5.913 0 0 1 1.809-2.843c.156-.418.316-.84.473-1.258 3.382-16.282 11.886-31.793 26.37-40.664 15.93-9.934 34.126-14.664 51.993-19.739 23.312-7.015 45.191-17.87 68.125-25.894 8.726-2.61 17.453-5.238 25.844-8.824 11.535-4.043 22.511-10.555 27.394-22.325C-4.183 21.856-2.039 9.957 0 0Zm16.95-55.281c2.105 20.476-.555 40.957-4.852 60.98C5.945 37.984-1.891 56.938-35.227 67.703c-8.605 3.528-17.601 5.887-26.425 8.762-18.176 6.793-35.77 15.09-54.184 21.25-20.223 7.273-42.047 10.598-60.379 22.445-7.664 5.238-13.601 13-16.812 21.7-2.172 8.577-5.094 16.89-8.293 25.14-.262.871-.528 1.742-.793 2.613-6.875 26.774-13.953 46.614 4.816 70.614 6.86 10.52 15.566 19.59 23.484 29.28 7.805 9.712 15.207 19.743 22.602 29.766 10.55 14.63 18.336 30.91 26.445 46.95 5.961 12.218 13.735 25.34 11.254 39.437-3.054 14.55-11.785 27.016-20.082 39.05-10.887 15.513-19.695 32.528-32.238 46.825-6.633 7.465-13.777 14.488-20.734 21.649-7.985 7.433-14.395 17.082-24.047 22.441-16.809 9.941-54.848-9.258-72.067-16.332-26.797-11.121-54.8-18.938-82.062-28.738-24.848-7.692-49.172 2.07-70.614 14.453-8.617 5.11-17.277 10.476-24.628 17.336-13.364 12.09-10.454 26.992-10.207 43.129-.41 16.613-.86 33.273.73 49.847.82 6.504 2.617 12.828 4.082 19.207.793 5.434.379 9.352.73 14.579.047 4.03.883 9.515-1.308 12.574-.867 7.758-1.996 15.488-3.195 23.199-1.356 8.762-2.563 17.547-3.684 26.348-.758 4.8-.894 9.816-2.82 14.34-5.238 9.996-14.488 17.562-24.008 23.343-9.586 5.309-20.484 7.555-30.855 10.856-10.344 3-20.086 7.629-30.231 11.187-17.32 6.629-32.934 11.18-51.621 7.797-12.746-.312-22.777-9.14-31.719-17.316-11.074-9.563-20.078-21.13-27.887-33.446-10.953-16.187-23.285-30.773-34.917-46.347-8.536-11.996-15.743-25.004-26.16-35.551-8.41-8.313-17.762-16.512-30.052-17.59-21.207-2.773-42.832-3.84-63.738 1.36-9.12 1.398-18.57 2.472-26.656 7.288-20.969 10.875-30.11 32.73-43.188 51.079-5.734 8.988-12.25 17.457-17.664 26.648-14.695 26.152-31.007 70.305-66.878 69.23-8.149-1.55-16.81-4.039-24.938-4.886-5.394-1.117-17.82-1.403-25.238-4.543-23.215-3.906-44.836-15.832-65.942-25.004-10.258-3.027-20.492-8.781-24.957-18.992-6.812-15.176-7.195-32.64-5.539-48.957 1.805-17.72 3.543-35.32 5.153-52.95.5-7.812 0-15.601-.442-23.406-.492-13.879.77-29.258-4.87-42.12-4.075-11.317-8.173-23.083-16.157-32.298-4.211-4.492-8.211-9.164-11.832-14.156-.906-.594-1.633-1.45-2.121-2.43a98.965 98.965 0 0 0-2.57-2.71c-8.84-8.813-20.337-16.012-33.173-16.051-22.953 1.023-44.144 11.554-65.39 19.273-21.68 8.965-43.934 16.148-66.617 22.098-13.668 3.968-27.153 9.941-41.688 9.07-27.797-2.121-43.027-29.395-62.508-45.844-11.242-11.105-20.289-24.183-29.265-37.12-12.157-16.231-20.27-31.188-14.453-51.923 6.148-25.336 29.941-41.328 44.578-61.351 12.086-15.528 21.996-32.551 32.836-48.938 6.187-9.719 12.527-19.445 17.043-30.082 4.09-10.07 4.601-21.11 5.351-31.828-.117-11.187-3.351-22.078-7.43-32.41-8.292-21.879-22.644-42.633-45.218-51.32-13.453-5.649-27.543-9.508-41.528-13.57-20.097-5.634-39.097-14.532-59.234-20.051-18.578-4.84-39.996-4.68-54.34-19.286-11.203-9.785-7.207-23.136-8.785-36.047-.965-5.425-1.555-10.89-1.894-16.367a7.068 7.068 0 0 1-.254-1.71 278.423 278.423 0 0 1-.078-5.993 311.184 311.184 0 0 1-.074-10.289c.023-.402.078-.789.172-1.156.035-3.063.07-6.125.059-9.188-.04-9.78.043-19.586.539-29.355 2.382-27.89-1.59-49.649 25.882-66.164 11.414-7.445 24.536-11.266 37.528-14.867 18.73-6.543 37.386-13.286 56.203-19.582a4100.663 4100.663 0 0 1 38.527-14.29c11.528-4.015 22.555-9.925 30.914-18.984 4.36-5.105 7.692-12.09 10.426-17.433 4.3-8.836 9.133-17.454 12.512-26.704 7.125-20.652 5.445-44.027-2.793-64.101-5.586-11.672-14.102-21.543-21.586-32.008-10.25-12.95-19.406-26.687-28.223-40.644-7.11-10.957-13.441-22.493-21.87-32.524-15.263-15.848-26.747-33.55-18.692-56.168 2.867-9.176 6.41-18.129 9.593-27.195 1.622-4.45 3.02-9.063 5.055-13.352 2.137-4.468 5.14-8.394 8.309-12.176 4.39-6.16 9.129-12.062 13.933-17.894 11.68-14.895 25.625-29.234 42.782-37.672 16.894-8.672 36.128-3.266 53.722.012 8.66 1.715 17.352 3.402 25.832 5.875 15.692 5.27 31.832 9.207 47.207 15.379 1.797.722 3.547 1.547 5.309 2.336.71.047 1.46.214 2.246.53 5.86 2.15 11.77 3.661 17.77 5.31 8.98 2.37 17.765 5.816 27.132 6.292 12.758.805 25.5-2.175 37.664-5.777 15.5-5.523 28.946-15.484 41.485-25.922 26.965-23.148 20.422-49.094 18.867-80.168 0-17.23.32-34.468.715-51.695.367-19.559.14-39.242 3.93-58.527 1.742-8.95 4.261-17.817 8.972-25.696 4.871-8.136 13.035-13.597 20.871-18.597 11.375-7.79 24.836-11.348 37.805-15.453 27.047-9.36 55.578-13.024 83.703-17.391 20.305-.223 33.156 18.25 44.219 32.812a1831.253 1831.253 0 0 1 31.59 47.133c2.058 3.77 7.007 7.543 6.757 11.832.028.035.047.067.07.102 5.606 8.535 10.403 16.972 16.173 25.281 6.27 9.793 13.043 19.781 23.492 25.52 10.887 5.261 23.332 6.25 35.11 8.394 17.386 2.606 35.062 5.266 52.616 2.695 18.516-2.203 27.836-21.289 35.305-36.246 5.7-11.343 11.918-22.422 18.32-33.379 11.188-21.015 27.551-37.68 43.797-54.73 9.797-10.48 18.793-22.719 31.567-29.707 13.855-5.883 29.605-6.875 44.484-5.875 18.75 2.672 36.258 10.617 54.238 16.25 9.438 3.129 18.266 7.758 27.262 11.941 12.883 6.356 27.465 12.192 34.621 25.512 11.914 21.457 6.98 46.492 6.13 69.79.98 3.94-.497 9.452-.774 13.218-1.645 10.086-4.407 20-5.621 30.156-1.043 11.508-1.332 23.078-1.957 34.621-.606 12.2-.973 25.332 5.015 36.383 9.934 14.043 24.223 24.816 38.953 33.453 12.032 6.942 23.938 15.59 38.137 17.063 12.996 1.23 26.055-1.2 38.594-4.453 8.101-2.543 15.625-6.614 23.613-9.489 15.016-6.265 30.379-11.582 45.605-17.3 10.43-3.692 20.473-8.555 31.227-11.262 8.422-1.633 16.691-4.293 25.215-5.25 29.383-.438 50.558 22.672 68.68 42.863 1.558 1.363 3.015 2.824 4.421 4.328a8.482 8.482 0 0 1 .8.692c3.415 3.32 6.591 6.847 9.607 10.504 1.484 1.43 2.984 3.078 3.879 4.867 3.93 5.09 7.64 10.363 11.336 15.62 20.347 26.06 15.976 49.704-.664 76.118-15.649 23.313-28.653 48.293-44.883 71.238-8.653 12.89-16.25 26.512-25.793 38.793-12.403 14.45-22.613 32.824-14.922 52.047a800.044 800.044 0 0 0 14.793 37.996c4.187 10.207 9.11 20.239 16.55 28.5 7.587 9.461 19.153 13.531 30.903 14.512 9.148 1.504 18.234 3.406 27.246 5.57 17.453 4.278 34.11 11.145 51.399 15.992 17.43 5.215 33.597 13.93 48.62 24.082C7.08-109.118 13.478-80.394 16.95-55.28z" style="fill:#000;fill-opacity:1;fill-rule:nonzero;stroke:none" transform="translate(1993.18 840.352)"/></g><g clip-path="url(#l)" transform="matrix(1 0 0 -1 0 1640)"><path d="M0 0c275.824-16.906 477.867-282.875 420.797-553.121-53.434-271.625-343.543-436.61-604.184-344.305-262.12 89.871-386.832 396.239-261.68 643.489C-364.874-89.965-181.874 14.73 0 0Zm241.828-849.008c404.477 295.75 152.48 923.63-344.18 857.899C-340.16-23.68-522.043-246.371-506.227-485.91c18.97-371.543 444.387-578.012 748.055-363.098z" style="fill:#fff;fill-opacity:1;fill-rule:nonzero;stroke:none" transform="translate(1236.125 1277.54)"/><path d="M0 0c-225.537-25.763-408.498-226.288-412.945-453.346-11.808-281.882 235.092-515.223 515.86-487.7C498.989-903.574 675.88-426.267 399.71-139.774 298.03-33.719 145.596 19.47 0 0Zm77.447-16.58c201.08-5.125 382.522-156.028 424.872-352.557 67.424-294.984-171.252-574.037-473.146-552.8C-199.295-908.32-386.805-714.879-392.91-486.03-404.067-224.885-183.686-4.92 77.447-16.58z" style="fill:#fff;fill-opacity:1;fill-rule:nonzero;stroke:none" transform="translate(1144.72 1285.498)"/></g></g></g></svg>